# Blender v2.76 (sub 0) OBJ File: ''
# www.blender.org
mtllib square3D.mtl
o Cube
v 1.233317 -0.246663 -1.233317
v 1.233317 -0.246663 1.233317
v -1.233317 -0.246663 1.233317
v -1.233317 -0.246663 -1.233318
v 0.690218 0.246663 -0.690218
v 0.690218 0.246663 0.690219
v -0.690218 0.246663 0.690218
v -0.690218 0.246663 -0.690218
vn 0.000000 -1.000000 0.000000
vn 0.000000 1.000000 0.000000
vn 0.672400 0.740200 0.000000
vn -0.000000 0.740200 0.672400
vn -0.672400 0.740200 -0.000000
vn 0.000000 0.740200 -0.672400
usemtl Material
s off
f 1//1 2//1 3//1 4//1
f 5//2 8//2 7//2 6//2
f 1//3 5//3 6//3 2//3
f 2//4 6//4 7//4 3//4
f 3//5 7//5 8//5 4//5
f 5//6 1//6 4//6 8//6
